# xmcd
#
# Track frame offsets:
#  150
#  12210
#  26797
#  47077
#  63810
#  81697
#  99622
#  114777
#  130400
#  147142
#  160635
#  173752
#  193575
#  207557
#  219917
#  233555
#
# Disc length: 3351 seconds
#
# Revision: 0
# Processed by: cddbd v1.5.1PL2 Copyright (c) Steve Scherf et al.
# Submitted via: Collectorz.com_Music_Collector 6.11
#
DISCID=d60d1510
DTITLE=Vários Artistas - O Melhor do Sertanejo
DYEAR=2004
DGENRE=Música Brasileira
TTITLE0=Bruno and Marrone - Dormi na praça
TTITLE1=Leonardo - Não aprendi a dizer adeus (ao vivo)
TTITLE2=Sérgio Reis - Pinga ni mim
TTITLE3=Zézé di Camargo and Luciano - A ferro e fogo
TTITLE4=Guilherme and Santiago - Som e imagem
TTITLE5=Gian and Giovani - Tatuagem
TTITLE6=Crystian - A vida é um rodeio
TTITLE7=René and Ronaldo - Anarrié
TTITLE8=Leonardo - Cerveja
TTITLE9=Adalberto Adriano - Bota lenha na fogueira
TTITLE10=Karlos and Alessandro - Ela é doida
TTITLE11=Leonardo - Deixaria tudo
TTITLE12=Gian and Giovani - Me dá um beijo
TTITLE13=Amado Batista - Morro de ciúmes dela
TTITLE14=Bruno and Marrone - Credo em cruz, avé maria
TTITLE15=Só pra Contrariar - Solidão
EXTD=
EXTT0=
EXTT1=
EXTT2=
EXTT3=
EXTT4=
EXTT5=
EXTT6=
EXTT7=
EXTT8=
EXTT9=
EXTT10=
EXTT11=
EXTT12=
EXTT13=
EXTT14=
EXTT15=
PLAYORDER=
